<?xml version="1.0" encoding="UTF-8"?>
<!-- Generator: Adobe Illustrator 26.1.0, SVG Export Plug-In . SVG Version: 6.00 Build 0)  -->
<svg xmlns="http://www.w3.org/2000/svg" xmlns:xlink="http://www.w3.org/1999/xlink" version="1.1" id="Layer_1" x="0px" y="0px" width="644.12px" height="349.469px" viewBox="0 0 644.12 349.469" xml:space="preserve">
<path id="_x23_000000" d="M644.059,126.876c-23.384-14.946-55.732-18.233-72.071-18.901c1.004-3.473,1.849-6.804,2.541-9.967  c34.995-0.638,56.733,6.972,62.217,9.158c0.086,0.034,0.142-0.102,0.061-0.146c-20.393-10.976-45.329-13.731-61.245-14.248  c0.537-3.043,0.924-5.901,1.169-8.544c15.427,0.752,35.34,2.788,51.13,8.029c0,0-11.905-9.309-50.844-12.38  c0.279-7.559-0.76-12.878-2.737-15.202c14.427-10.519,20.473-29.363,18.977-34.989c-0.628-2.363-2.922-3.848-5.36-3.675  c-32.603,2.324-121.079-55.086-305.822-6.293c-25.619,6.767-45.116-2.605-49.163,7.626c-6.407,16.2,20.021,44.951,20.021,44.951  C110.445,132.403,0,276.89,0,276.89c158.562-31.57,254.553,4.215,311.508,30.278c56.955,26.063,127.998,47.223,178.781,41.298  c-10.873-26.235-37.882-57.951-37.882-57.951c72.123,8.927,58.557-58.31,57.035-81.22c33.27-33.187,51.879-68.255,60.818-95.698  c37.937-0.463,67.097,10.749,73.688,13.514C644.09,127.171,644.19,126.96,644.059,126.876z"></path>
<path id="_x23_0b85c8" fill="#0B85C8" d="M383.185,223.992c-118.236-5.737-91.393-95.013-91.393-95.013  C303.636,206.875,383.185,223.992,383.185,223.992z M410.114,34.562c-0.235-0.026-0.471-0.05-0.708-0.074  c-9.727-0.95-22.61,0.074-34.136,5.3c0,0,12.203-0.562,23.562,1.9C401.93,37.36,407.579,34.562,410.114,34.562z M298.407,118.615  c43.667-12.242,88.517-10.841,105.375-9.719c-0.203-2.764-0.1-5.613,0.465-8.513C336.452,99.323,298.407,118.615,298.407,118.615z   M297.149,97.295c49.141-9.863,92.001-6.151,109.384-3.871c1.119-2.387,2.611-4.789,4.565-7.188  C346.786,77.378,297.149,97.295,297.149,97.295z M296.84,75.282c0,0,72.386-10.199,119.801,5.27c2.62-2.29,5.724-4.565,9.376-6.809  C408.035,68.729,358.923,58.619,296.84,75.282z M160.232,266.278c12.458,1.067,24.266,2.583,35.455,4.446  c14.476-61.798,70.759-104.339,70.759-104.339S197.948,194.939,160.232,266.278z M560.361,113.597  c-7.328,32.068-36.253,77.191-49.71,94.471c32.506-32.823,50.779-67.366,59.607-94.471  C570.259,113.597,565.358,113.378,560.361,113.597z M561.43,108.215c3.164-0.202,10.559-0.24,10.559-0.24  c1.004-3.473,1.849-6.804,2.541-9.967c-6.102,0.029-13.362,0.193-13.362,0.193C562.497,101.768,561.43,108.215,561.43,108.215z   M552.1,83.909c4.554,3.218,7.485,9.055,7.485,9.055c2.851,0.022,15.977-0.192,15.977-0.192c0.537-3.043,0.924-5.901,1.169-8.544  C568.595,83.73,552.1,83.909,552.1,83.909z M498.208,139.19c0.113-0.161-0.11-0.336-0.251-0.2  c-20.901,20.271-11.82,36.38-0.552,63.898c11.523,28.141-1.028,45.017-25.953,47.789c-36.54,4.063-48.629-20.358-49.627-43.029  c-0.998-22.671,3.993-45.668,3.993-45.668s-9.04,4.748-7.874,49.021c1.166,44.273,27.123,68.401,59.164,60.726  c47.118-11.286,36.144-52.773,20.603-83.818C484.77,162.059,494.567,144.382,498.208,139.19z M452.406,290.515  c0,0,27.009,31.716,37.882,57.951c0,0-0.003-26.703-12.801-58.273C470.568,291.523,462.297,291.739,452.406,290.515z M491.799,99.69  c4.346-14.846,17.534-23.39,24.088-26.825c2.291-1.201,3.771-1.777,3.779-1.781c0,0-2.652-1.13-3.972-1.63  c-29.097-11.03-55.947-1.801-55.947-1.801C483.593,76.943,490.685,89.92,491.799,99.69z M593.257,29.687  c-0.628-2.363-2.922-3.848-5.36-3.675c-32.603,2.324-121.079-55.086-305.822-6.293c-25.619,6.767-45.116-2.605-49.163,7.626  c-6.407,16.2,20.021,44.951,20.021,44.951C110.445,132.403,0,276.89,0,276.89c18.496-3.683,36.129-6.438,52.96-8.41  C107.697,166.239,219.602,98.943,281.408,65.826c0,0-9.221,0.793-19.298,2.99c-9.267-5.412-30.048-33.3-27.078-38.457  s17.311,4.729,47.705,2.485s44.176-9.578,46.433-14.705c30.425-14.84,106.871-21.631,127.307,19.778  c5.616-6.03-7.394-23.56-30.58-31.2c-0.577-0.19-0.462-1.04,0.145-1.057c6.276-0.179,22.983,0.441,54.099,8.578  c36.981,9.672,38.366,25.666,38.366,25.666s27.207-9.332,45.78,10.144c2.653,2.782,5.832,7.451,8.028,11.521  c-0.391-2.46-3.732-18.324-16.33-28.169c0,0,11.268-0.269,18.806-1.402c0.991-0.149,1.918-0.313,2.746-0.493  c7.126-1.551,12.091-2.059,13.115,0.855s-7.07,20.767-18.337,29.209c0,0-41.773-8.604-52.645,9.513  c24.07,8.62,30.88,34.654,9.943,52.452c15.738-5.83,30.669-28.679,13.247-44.56c13.214-0.244,24.505,0.141,34.16,0.902  c0,0-0.001,0-0.001,0c0.279-7.559-0.76-12.878-2.737-15.202C588.707,54.156,594.753,35.313,593.257,29.687z"></path>
<path id="_x23_f2f2f3" fill="#F2F2F3" d="M492.432,202.889c0,0,11.893,22.362-2.857,33.001  c-14.751,10.639-42.432,4.899-47.572,1.724c0,0,10.075-12.206,16.129-30.298c0,0,4.346,11.977,0.615,22.935  c0,0,11.863,2.335,22.433-0.124C481.18,230.128,493.115,222.84,492.432,202.889z M438.381,125.628c0,0,6.912,21.293-4.957,49.962  c0,0,14.156-10.73,28.624-41.949c0,0,23.15-5.291,40.812,0c0,0,2.801,17.768-4.194,37.381c0,0,14.415-9.286,22.125-44.625  C520.792,126.397,486.807,109.182,438.381,125.628z M526.863,45.332c-10.826,2.15-11.087,13.499-11.087,13.499  c13.871-10.707,35.712-6.002,35.712-6.002C546.186,48.452,537.689,43.183,526.863,45.332z M449.485,54.156  c0,0-14.406-16.672-39.37-19.594c-2.536,0-8.185,2.798-11.282,7.126c-1.561,2.181-2.485,4.744-2.012,7.547  c5.491-0.178,20.285-0.325,38.083,2.036C440.18,51.97,445.239,52.906,449.485,54.156z"></path>
<g>
</g>
<g>
</g>
<g>
</g>
<g>
</g>
<g>
</g>
</svg>
